<svg width="111" height="123" viewBox="0 0 111 123" fill="none" xmlns="http://www.w3.org/2000/svg">
<path fill-rule="evenodd" clip-rule="evenodd" d="M16.6549 18.8759C26.4238 8.7006 39.7147 1.98465 53.2404 0.389287C63.1964 -0.784743 73.4298 0.699586 83.6679 4.80375L87.9419 6.51643L88.1656 3.33465L88.3895 0.152417H105.852L105.969 20.1991L106.086 40.2458L104.932 40.6841C103.493 41.2313 91.2804 41.2643 89.874 40.7243C89.3038 40.5058 87.7725 39.0104 86.4709 37.4021C82.1353 32.0427 74.8157 27.3703 68.0166 25.622C64.1984 24.64 55.8882 24.634 51.7943 25.6107C42.0532 27.934 33.6384 34.7316 29.1156 43.9302C25.7816 50.7116 25.2677 53.0329 25.2744 61.2716C25.2801 67.9379 25.3383 68.3798 26.7451 72.4655C27.5508 74.8051 29.056 78.2166 30.0908 80.0467C32.3462 84.0358 37.5868 89.5624 41.5003 92.0778C56.4129 101.665 73.9077 99.2286 87.259 85.7063C89.3787 83.5592 90.9615 82.3164 91.5754 82.3164C92.6741 82.3164 110.554 97.2991 110.554 98.2198C110.554 99.0178 109.562 100.088 104.811 104.423C92.4952 115.659 78.1427 121.764 62.4195 122.453C53.2821 122.853 44.3471 120.961 35.4779 116.749C23.4488 111.036 12.3963 100.074 6.24676 87.7571C-5.01531 65.2016 -0.755764 37.0111 16.6549 18.8759ZM49.1368 41.3007C49.3423 41.4273 51.6974 39.6261 54.3703 37.2973C57.0434 34.9685 59.5748 33.0627 59.9959 33.0627C60.4168 33.0627 66.9778 38.2254 74.5752 44.5356C89.3344 56.7925 92.1956 59.3412 92.1956 60.2296C92.1956 61.1812 90.5889 61.7193 87.7476 61.7193H85.0315V80.4609L80.6658 84.3016L76.3001 88.1426L71.5985 88.028L66.8971 87.9134L66.7753 79.294L66.654 70.6746H53.7075L53.5862 79.294L53.4644 87.9134L49.0705 88.0419L44.6766 88.1703L40.7937 84.6835C38.6578 82.7658 36.6554 80.9595 36.3443 80.6691C35.923 80.2767 35.7777 77.7797 35.7777 70.9301V61.7193H32.6802C29.0318 61.7193 28.1659 61.4602 28.1659 60.3684C28.1659 59.5298 29.3718 58.3124 35.7777 52.6831L39.5837 49.3384L39.8077 43.1038L40.0316 36.8687L48.7628 36.6125V38.841C48.7628 40.0665 48.9312 41.1734 49.1368 41.3007Z" fill="#E2E8CE"/>
</svg>
