<svg width="201" height="87" viewBox="0 0 201 87" fill="none" xmlns="http://www.w3.org/2000/svg">
<path d="M51.8333 5.70642H42.0848C32.3363 5.70642 23.7569 8.95592 16.3465 15.4549C8.93609 21.9539 5.23088 31.1872 5.23088 43.1548C5.23088 54.9639 8.95589 64.1377 16.4059 70.6763C23.856 77.2149 32.4156 80.4842 42.0848 80.4842H51.7144V84.764H41.1337C30.1172 84.764 20.5074 81.0192 12.3045 73.5295C4.10149 66.0399 0 55.915 0 43.1548C0 30.2361 4.06185 20.0517 12.1856 12.6017C20.3093 5.15164 29.9587 1.42664 41.1337 1.42664H51.8333V5.70642Z" fill="#E67E22"/>
<path d="M120.072 84.764H115.079V44.1058H72.4001V39.826H115.079V27.2244C115.079 20.2499 112.92 14.7218 108.6 10.6401C104.281 6.55844 98.5149 4.51758 91.3026 4.51758C84.1696 4.51758 78.4434 6.55844 74.1239 10.6401C69.8045 14.7218 67.6448 20.2499 67.6448 27.2244V84.764H62.6517V28.7699C62.6517 19.7347 65.2275 12.6809 70.3791 7.60855C75.5307 2.53618 82.5052 0 91.3026 0C100.1 0 107.094 2.51639 112.286 7.54913C117.477 12.5819 120.072 19.6555 120.072 28.7699V84.764Z" fill="#E67E22"/>
<path d="M187.123 1.42664L160.968 80.3654C160.255 82.6638 159.383 84.2093 158.353 85.0018C157.323 85.7944 155.975 86.1907 154.311 86.1907C152.647 86.1907 151.279 85.7944 150.209 85.0018C149.14 84.2093 148.248 82.6638 147.535 80.3654L123.282 1.42664H128.157L151.339 76.7989C152.369 80.0483 153.36 81.6731 154.311 81.6731C155.262 81.6731 156.253 80.0483 157.283 76.7989L182.13 1.42664H187.123Z" fill="#E67E22"/>
<path d="M200.676 84.7641H195.682V1.42664H200.676V84.7641Z" fill="#E67E22"/>
</svg>
